<?xml version="1.0" encoding="UTF-8" standalone="no"?>
<!-- Created with Inkscape (http://www.inkscape.org/) -->

<svg
   xmlns:dc="http://purl.org/dc/elements/1.1/"
   xmlns:cc="http://creativecommons.org/ns#"
   xmlns:rdf="http://www.w3.org/1999/02/22-rdf-syntax-ns#"
   xmlns:svg="http://www.w3.org/2000/svg"
   xmlns="http://www.w3.org/2000/svg"
   xmlns:sodipodi="http://sodipodi.sourceforge.net/DTD/sodipodi-0.dtd"
   xmlns:inkscape="http://www.inkscape.org/namespaces/inkscape"
   width="300"
   height="300"
   id="svg7279"
   version="1.1"
   inkscape:version="0.48.5 r10040"
   sodipodi:docname="New document 2">
  <defs
     id="defs7281" />
  <sodipodi:namedview
     id="base"
     pagecolor="#ffffff"
     bordercolor="#666666"
     borderopacity="1.0"
     inkscape:pageopacity="0.0"
     inkscape:pageshadow="2"
     inkscape:zoom="0.98994949"
     inkscape:cx="198.42046"
     inkscape:cy="36.245105"
     inkscape:document-units="px"
     inkscape:current-layer="layer1"
     showgrid="false"
     fit-margin-top="0"
     fit-margin-left="0"
     fit-margin-right="0"
     fit-margin-bottom="0"
     inkscape:window-width="1920"
     inkscape:window-height="1027"
     inkscape:window-x="-8"
     inkscape:window-y="-8"
     inkscape:window-maximized="1" />
  <metadata
     id="metadata7284">
    <rdf:RDF>
      <cc:Work
         rdf:about="">
        <dc:format>image/svg+xml</dc:format>
        <dc:type
           rdf:resource="http://purl.org/dc/dcmitype/StillImage" />
        <dc:title></dc:title>
      </cc:Work>
    </rdf:RDF>
  </metadata>
  <g
     inkscape:label="Layer 1"
     inkscape:groupmode="layer"
     id="layer1"
     transform="translate(-89.395469,-57.886045)">
    <path
       style="fill:#ff0000;fill-opacity:0.50196078;stroke:none"
       d="m 133.74157,101.40786 c -58.803807,58.34883 -59.174285,153.3272 -0.82538,212.13182 58.3489,58.80472 153.3285,59.17411 212.13231,0.82528 58.80579,-58.34873 59.17428,-153.3265 0.82638,-212.13132 l -1.48093,-1.46125 C 285.81561,43.343898 191.97426,43.627466 133.74256,101.40737 z m 27.95078,28.16857 C 199.74239,91.821848 258.46873,87.458563 301.30619,116.57755 L 147.6072,269.08483 C 118.86084,226.07832 123.59661,167.3763 161.69235,129.57643 z m 15.79153,169.61904 153.69998,-152.50738 c 28.74239,43.00363 23.99371,101.69354 -14.10104,139.49232 -38.09474,37.79997 -96.82008,42.09124 -139.59894,13.01506 z"
       id="path7980"
       inkscape:connector-curvature="0" />
  </g>
</svg>
