<?xml version="1.0" encoding="UTF-8" standalone="no"?>
<!-- Created with Inkscape (http://www.inkscape.org/) -->

<svg
   xmlns:dc="http://purl.org/dc/elements/1.1/"
   xmlns:cc="http://creativecommons.org/ns#"
   xmlns:rdf="http://www.w3.org/1999/02/22-rdf-syntax-ns#"
   xmlns:svg="http://www.w3.org/2000/svg"
   xmlns="http://www.w3.org/2000/svg"
   xmlns:sodipodi="http://sodipodi.sourceforge.net/DTD/sodipodi-0.dtd"
   xmlns:inkscape="http://www.inkscape.org/namespaces/inkscape"
   width="160.0002"
   height="80.000198"
   id="svg15244"
   version="1.1"
   inkscape:version="0.48.5 r10040"
   sodipodi:docname="soundonoff_160x80_1x2.svg">
  <defs
     id="defs15246" />
  <sodipodi:namedview
     id="base"
     pagecolor="#ffffff"
     bordercolor="#666666"
     borderopacity="1.0"
     inkscape:pageopacity="0.0"
     inkscape:pageshadow="2"
     inkscape:zoom="2.8"
     inkscape:cx="-24.840571"
     inkscape:cy="-40.83202"
     inkscape:document-units="px"
     inkscape:current-layer="layer1"
     showgrid="false"
     fit-margin-top="0"
     fit-margin-left="0"
     fit-margin-right="0"
     fit-margin-bottom="0"
     inkscape:window-width="1920"
     inkscape:window-height="1027"
     inkscape:window-x="-8"
     inkscape:window-y="-8"
     inkscape:window-maximized="1" />
  <metadata
     id="metadata15249">
    <rdf:RDF>
      <cc:Work
         rdf:about="">
        <dc:format>image/svg+xml</dc:format>
        <dc:type
           rdf:resource="http://purl.org/dc/dcmitype/StillImage" />
        <dc:title />
      </cc:Work>
    </rdf:RDF>
  </metadata>
  <g
     inkscape:label="Layer 1"
     inkscape:groupmode="layer"
     id="layer1"
     transform="translate(271.8046,-25.7878)">
    <g
       id="g11380"
       transform="matrix(1.6,0,0,1.6,31196.658,-23782.425)">
      <path
         id="path11330"
         d="m -19583.414,14905.133 c 0,-3.688 -2.125,-6.854 -5.208,-8.396 v 4.604 l 5.104,5.104 c 0.06,-0.416 0.104,-0.854 0.104,-1.312 z m 5.208,0 c 0,1.958 -0.416,3.792 -1.125,5.5 l 3.146,3.146 c 1.375,-2.584 2.146,-5.521 2.146,-8.646 0,-8.917 -6.229,-16.375 -14.583,-18.271 v 4.292 c 6.02,1.791 10.416,7.375 10.416,13.979 z m -30.687,-18.75 -2.646,2.646 9.854,9.854 h -9.854 v 12.5 h 8.333 l 10.417,10.417 v -14.021 l 8.854,8.854 c -1.396,1.083 -2.958,1.937 -4.687,2.458 v 4.292 c 2.875,-0.646 5.479,-1.979 7.687,-3.771 l 4.25,4.271 2.646,-2.646 -18.75,-18.75 -16.104,-16.104 z m 16.104,2.083 -4.354,4.354 4.354,4.355 v -8.709 z"
         inkscape:connector-curvature="0"
         style="fill:#575757;fill-opacity:1" />
      <path
         id="path11332"
         d="m -19617.789,14880.133 h 50 v 50 h -50 z"
         inkscape:connector-curvature="0"
         style="fill:none" />
    </g>
    <path
       style="fill:#2c3e50;fill-opacity:1"
       inkscape:connector-curvature="0"
       d="m -261.8046,55.788 v 20 h 13.3328 l 16.6672,16.6672 V 39.1208 l -16.6672,16.6672 h -13.3328 z m 45,10 c 0,-5.9008 -3.4,-10.9664 -8.3328,-13.4336 V 79.188 c 4.9328,-2.4336 8.3328,-7.5008 8.3328,-13.4 z m -8.3328,-29.2336 v 6.8672 c 9.632,2.8656 16.6656,11.8 16.6656,22.3664 0,10.5664 -7.0336,19.4992 -16.6656,22.3664 v 6.8672 c 13.3664,-3.0336 23.3328,-14.9664 23.3328,-29.2336 0,-14.2672 -9.9664,-26.2 -23.3328,-29.2336 z"
       id="path11358" />
    <path
       style="fill:none"
       inkscape:connector-curvature="0"
       d="m -271.8046,25.788 h 80 v 80 h -80 z"
       id="path11360" />
  </g>
</svg>
